<?xml version="1.0" encoding="UTF-8" standalone="no"?>
<!-- Created with Inkscape (http://www.inkscape.org/) -->

<svg
   xmlns:dc="http://purl.org/dc/elements/1.1/"
   xmlns:cc="http://creativecommons.org/ns#"
   xmlns:rdf="http://www.w3.org/1999/02/22-rdf-syntax-ns#"
   xmlns:svg="http://www.w3.org/2000/svg"
   xmlns="http://www.w3.org/2000/svg"
   xmlns:xlink="http://www.w3.org/1999/xlink"
   xmlns:sodipodi="http://sodipodi.sourceforge.net/DTD/sodipodi-0.dtd"
   xmlns:inkscape="http://www.inkscape.org/namespaces/inkscape"
   version="1.1"
   id="svg2"
   width="682.66669"
   height="682.66669"
   viewBox="0 0 682.66669 682.66669"
   sodipodi:docname="iconFuzzy.svg"
   inkscape:export-filename="/home/seba/Documentos/01ia/TPs2021/tp2/iconFuzzy.png"
   inkscape:export-xdpi="300"
   inkscape:export-ydpi="300"
   inkscape:version="0.92.5 (2060ec1f9f, 2020-04-08)">
  <metadata
     id="metadata8">
    <rdf:RDF>
      <cc:Work
         rdf:about="">
        <dc:format>image/svg+xml</dc:format>
        <dc:type
           rdf:resource="http://purl.org/dc/dcmitype/StillImage" />
        <dc:title></dc:title>
      </cc:Work>
    </rdf:RDF>
  </metadata>
  <defs
     id="defs6">
    <linearGradient
       inkscape:collect="always"
       id="linearGradient1099">
      <stop
         style="stop-color:#b827ff;stop-opacity:1"
         offset="0"
         id="stop1095" />
      <stop
         style="stop-color:#1c6bff;stop-opacity:1"
         offset="1"
         id="stop1097" />
    </linearGradient>
    <linearGradient
       gradientTransform="matrix(1.2967998,0,0,1.2967998,-171.09518,-56.07481)"
       gradientUnits="userSpaceOnUse"
       y2="334.44583"
       x2="514.85358"
       y1="135.04791"
       x1="571.25574"
       id="linearGradient2415-8"
       xlink:href="#linearGradient2413" />
    <linearGradient
       id="linearGradient2413">
      <stop
         id="stop2409"
         offset="0"
         style="stop-color:#78c4ff;stop-opacity:1;" />
      <stop
         id="stop2411"
         offset="1"
         style="stop-color:#d7aeff;stop-opacity:1" />
    </linearGradient>
    <linearGradient
       gradientTransform="matrix(1.2967998,0,0,1.2967998,-171.09518,-56.07481)"
       gradientUnits="userSpaceOnUse"
       y2="363.72601"
       x2="506.33658"
       y1="114.47861"
       x1="572.56433"
       id="linearGradient2407-1"
       xlink:href="#linearGradient2405" />
    <linearGradient
       id="linearGradient2405">
      <stop
         id="stop2401"
         offset="0"
         style="stop-color:#1a6cff;stop-opacity:1;" />
      <stop
         id="stop2403"
         offset="1"
         style="stop-color:#c522ff;stop-opacity:1" />
    </linearGradient>
    <linearGradient
       inkscape:collect="always"
       xlink:href="#linearGradient1099"
       id="linearGradient1101"
       x1="-848.99432"
       y1="523.57062"
       x2="-850.44067"
       y2="-160.54237"
       gradientUnits="userSpaceOnUse"
       gradientTransform="translate(1216.3616,160.54237)" />
  </defs>
  <sodipodi:namedview
     pagecolor="#ffffff"
     bordercolor="#666666"
     borderopacity="1"
     objecttolerance="10"
     gridtolerance="10"
     guidetolerance="10"
     inkscape:pageopacity="0"
     inkscape:pageshadow="2"
     inkscape:window-width="1920"
     inkscape:window-height="1055"
     id="namedview4"
     showgrid="false"
     inkscape:zoom="0.69140623"
     inkscape:cx="247.19222"
     inkscape:cy="491.67085"
     inkscape:window-x="0"
     inkscape:window-y="0"
     inkscape:window-maximized="1"
     inkscape:current-layer="g821" />
  <g
     id="g821"
     transform="translate(1216.3616,160.54237)">
    <path
       style="fill:url(#linearGradient1101);fill-opacity:1;stroke:none;stroke-width:2;stroke-linecap:round;stroke-miterlimit:10;stroke-dasharray:6, 6;stroke-dashoffset:0;stroke-opacity:1"
       d="M 341.22852 8.4785156 C 335.88624 8.5370636 330.40574 10.47734 325.6875 14.503906 C 313.97917 24.495876 316.21072 49.099148 329.30273 54.367188 C 352.7035 63.783201 372.08919 45.472039 362.60352 22.912109 C 358.65005 13.509709 350.13231 8.3809356 341.22852 8.4785156 z M 186.80078 50.25 C 184.02821 50.253531 181.13198 50.727876 178.17188 51.759766 C 159.19777 58.374156 158.04666 87.40643 176.44336 95.365234 C 188.40976 100.54205 197.4691 98.749316 205.3418 89.644531 C 219.49992 73.27062 206.20877 50.225284 186.80078 50.25 z M 494.16602 51.685547 C 480.63052 51.702481 471.81055 60.780718 471.81055 75.115234 C 471.81055 85.731331 477.71586 93.934246 488.10938 97.755859 C 490.79847 98.744665 493.41215 99.669 493.91797 99.810547 C 494.42379 99.952094 499.77815 98.003355 505.81641 95.480469 C 528.88546 85.841571 522.40703 53.978494 496.93555 51.802734 C 495.99248 51.722179 495.06838 51.684418 494.16602 51.685547 z M 254.4082 143.18555 C 239.71901 143.36978 224.79121 150.57635 214.89453 165.25977 C 199.92373 187.4716 210.75742 223.5434 235.49219 233.8418 C 239.0777 235.33469 247.58462 236.65 254.39648 236.76367 C 287.87374 237.32218 309.98967 204.13548 297.29102 172.39844 C 289.51672 152.96857 272.13654 142.9632 254.4082 143.18555 z M 428.44922 143.18555 C 410.72089 142.9632 393.33876 152.96857 385.56445 172.39844 C 376.56762 194.88388 384.19249 218.08936 404.84961 231.08984 C 412.33477 235.80049 419.02454 237.01775 432.11523 236.04883 C 446.8138 234.96092 451.24747 232.97912 461.16406 223.0625 C 471.02708 213.19952 473.08399 208.63276 474.25781 194.01367 C 475.40406 179.73694 474.29169 174.64966 467.96289 165.25977 C 458.06622 150.57635 443.13841 143.36978 428.44922 143.18555 z M 596.40625 171.61523 C 590.177 171.5542 583.92659 173.74724 579.37695 178.29688 C 569.67106 188.00279 570.68567 205.45092 581.44727 213.91602 C 592.84038 222.87777 603.97235 222.44961 613.75 212.67188 C 623.52777 202.89419 623.95788 191.76025 614.99609 180.36719 C 610.49899 174.65009 603.46607 171.6844 596.40625 171.61523 z M 87.599609 171.73438 C 80.117231 171.80898 71.7 174.222 67.625 178.29688 C 56.3932 189.5288 60.617675 211.45153 75.171875 217.45898 C 90.154775 223.64354 109.99805 212.14561 109.99805 197.2793 C 109.99805 189.92103 104.14247 177.762 98.917969 174.27344 C 96.242606 172.48702 92.089036 171.68961 87.599609 171.73438 z M 340.27344 266.02344 C 322.63558 266.17849 304.66203 272.64026 289.69141 286.84375 C 251.24929 323.31603 262.08876 387.60798 310.46289 410.05273 C 326.49252 417.49023 353.70539 418.0105 370.05469 411.19141 C 397.91089 399.57292 416.25586 371.81148 416.25586 341.27539 C 416.25586 295.86277 379.07672 265.68231 340.27344 266.02344 z M 165.96875 294.79297 C 157.65485 294.85264 149.16911 297.09058 141.32031 301.94141 C 106.94911 323.18393 115.58506 375.48453 155.35156 386.92383 C 183.36796 394.98303 214.30469 371.02784 214.30469 341.27539 C 214.30469 314.03247 190.91045 294.61397 165.96875 294.79297 z M 514.74414 294.79297 C 506.43026 294.85263 497.94448 297.0906 490.0957 301.94141 C 455.70181 323.19799 464.20914 374.83221 504.125 387.08789 C 531.5876 395.51996 563.07812 371.04808 563.07812 341.27539 C 563.07812 314.03247 539.6858 294.61399 514.74414 294.79297 z M 34.072266 317.87305 C 30.597897 317.82363 27.047203 318.43665 23.673828 319.8125 C 4.6340281 327.57807 4.1219813 354.48696 22.863281 362.36719 C 43.271181 370.94804 61.964712 354.87148 56.570312 333.37891 C 54.246138 324.11858 44.495372 318.02128 34.072266 317.87305 z M 650.13086 317.87305 C 646.6565 317.82363 643.10774 318.43665 639.73438 319.8125 C 620.69476 327.57807 620.18234 354.48696 638.92383 362.36719 C 659.33172 370.94804 678.02314 354.87148 672.62891 333.37891 C 670.30469 324.11858 660.55394 318.02128 650.13086 317.87305 z M 255.30078 445.59766 C 239.46906 445.14328 223.3558 452.12944 214.37695 466.76953 C 199.00415 491.83536 208.79582 523.96773 235.33008 535.52539 C 249.65756 541.76604 262.22358 541.07422 276.08594 533.2832 C 298.73322 520.55471 306.75879 492.62151 294.5332 469.07031 C 286.68268 453.9472 271.1325 446.05204 255.30078 445.59766 z M 426.49219 445.63281 C 418.9153 445.72926 411.24729 447.75336 404.14453 452.08398 C 387.5738 462.18725 379.92875 476.88194 381.53711 495.5332 C 383.12475 513.94468 391.27368 526.457 406.85156 534.40039 C 412.99879 537.5349 422.42831 540.09961 427.80664 540.09961 C 452.25841 540.09961 475.08029 517.43841 475.05859 493.17969 C 475.03343 465.57234 451.24334 445.31775 426.49219 445.63281 z M 85.431641 462.21875 C 80.318139 462.29709 75.033781 464.43588 69.693359 468.63672 C 58.931459 477.10178 57.9191 494.54801 67.625 504.25391 C 77.3309 513.9598 94.777188 512.94715 103.24219 502.18555 C 112.20389 490.79249 111.77585 479.65857 101.99805 469.88086 C 96.803644 464.68644 91.226943 462.12997 85.431641 462.21875 z M 594.88867 462.22266 C 590.07357 462.2131 586.05054 464.68966 580.85938 469.88086 C 570.98204 479.75822 570.31594 495.19285 579.37695 504.25391 C 589.08284 513.9598 606.53096 512.94715 614.99609 502.18555 C 625.98416 488.21648 623.4491 474.389 608.48047 466.64844 C 602.85833 463.74113 598.63375 462.23009 594.88867 462.22266 z M 186.59766 584.43945 C 165.07756 584.43945 153.76418 609.95169 168.67188 624.85938 C 172.70757 628.89509 179.53516 631.37695 186.59766 631.37695 C 208.12326 631.37695 218.61241 608.85075 204.94531 591.97266 C 200.53111 586.52122 195.46256 584.43945 186.59766 584.43945 z M 495.14258 584.86523 C 488.99539 584.69094 482.80506 586.5848 478.37305 590.5957 C 470.24975 597.94722 469.60927 617.0247 477.20508 625.41797 C 484.70336 633.70347 504.86165 633.36027 512.59375 624.81641 C 520.61555 615.95243 520.16488 600.05359 511.65039 591.53906 C 507.39314 587.28181 501.28976 585.03953 495.14258 584.86523 z M 340.04492 624.93555 C 336.80182 624.99787 333.39451 625.64474 329.92383 626.97656 C 315.8327 632.38383 314.30436 659.6351 327.5293 669.67773 C 339.37044 678.66953 356.70411 673.6714 362.64062 659.55273 C 370.30291 641.32938 357.55769 624.59901 340.04492 624.93555 z "
       transform="translate(-1216.3616,-160.54237)"
       id="rect839" />
  </g>
</svg>
